<?xml version="1.0" encoding="UTF-8" standalone="no"?>
<!-- Created with Inkscape (http://www.inkscape.org/) -->

<svg
   xmlns:dc="http://purl.org/dc/elements/1.1/"
   xmlns:cc="http://creativecommons.org/ns#"
   xmlns:rdf="http://www.w3.org/1999/02/22-rdf-syntax-ns#"
   xmlns:svg="http://www.w3.org/2000/svg"
   xmlns="http://www.w3.org/2000/svg"
   xmlns:sodipodi="http://sodipodi.sourceforge.net/DTD/sodipodi-0.dtd"
   xmlns:inkscape="http://www.inkscape.org/namespaces/inkscape"
   width="210mm"
   height="297mm"
   viewBox="0 0 210 297"
   version="1.1"
   id="svg872"
   inkscape:version="0.92.4 (5da689c313, 2019-01-14)"
   sodipodi:docname="drawing.svg">
  <defs
     id="defs866" />
  <sodipodi:namedview
     id="base"
     pagecolor="#ffffff"
     bordercolor="#666666"
     borderopacity="1.0"
     inkscape:pageopacity="0.0"
     inkscape:pageshadow="2"
     inkscape:zoom="0.98994949"
     inkscape:cx="180.62088"
     inkscape:cy="790.05479"
     inkscape:document-units="mm"
     inkscape:current-layer="layer1"
     showgrid="false"
     inkscape:window-width="1680"
     inkscape:window-height="946"
     inkscape:window-x="-8"
     inkscape:window-y="-8"
     inkscape:window-maximized="1" />
  <metadata
     id="metadata869">
    <rdf:RDF>
      <cc:Work
         rdf:about="">
        <dc:format>image/svg+xml</dc:format>
        <dc:type
           rdf:resource="http://purl.org/dc/dcmitype/StillImage" />
        <dc:title></dc:title>
      </cc:Work>
    </rdf:RDF>
  </metadata>
  <g
     inkscape:label="Layer 1"
     inkscape:groupmode="layer"
     id="layer1">
    <g
       id="g6233"
       transform="matrix(2.5995836,0,0,2.5995836,-17.742068,-13.338901)"
       inkscape:export-filename="C:\Users\marlboro\g6233.png"
       inkscape:export-xdpi="134"
       inkscape:export-ydpi="134">
      <path
         d="M 19.694638,24.778422 H 16.284874 L 14.235339,21.38704 q -0.229768,-0.386011 -0.441155,-0.689306 -0.211387,-0.303294 -0.431965,-0.514681 -0.211387,-0.220578 -0.450346,-0.330867 -0.229768,-0.119479 -0.50549,-0.119479 h -0.799595 v 5.045715 H 8.6381802 V 11.598904 h 4.7056578 q 4.797565,0 4.797565,3.584387 0,0.689306 -0.211387,1.277513 -0.211387,0.579017 -0.597398,1.047744 -0.386011,0.468728 -0.937455,0.808785 -0.542254,0.340057 -1.213178,0.533063 v 0.03676 q 0.294104,0.09191 0.569826,0.303294 0.275722,0.202197 0.533063,0.477919 0.257341,0.275722 0.487109,0.597398 0.238959,0.312485 0.431965,0.615779 z m -8.08785,-10.95536 v 3.667105 h 1.286704 q 0.955836,0 1.534853,-0.551445 0.588207,-0.560635 0.588207,-1.387801 0,-1.727859 -2.067916,-1.727859 z"
         style="font-style:normal;font-variant:normal;font-weight:bold;font-stretch:normal;font-size:18.82263184px;line-height:1.25;font-family:Gisha;-inkscape-font-specification:'Gisha, Bold';font-variant-ligatures:normal;font-variant-caps:normal;font-variant-numeric:normal;font-feature-settings:normal;text-align:start;letter-spacing:0px;word-spacing:0px;writing-mode:lr-tb;text-anchor:start;fill:#b90b47;fill-opacity:0.77519382;stroke:#000000;stroke-width:0.1;stroke-miterlimit:4;stroke-dasharray:none"
         id="path6041"
         inkscape:connector-curvature="0"
         transform="matrix(1.0385776,0,0,0.96285534,1.5119048,-1.7953869)" />
      <path
         d="m 29.087572,20.899931 h -6.139413 q 0.147052,2.049534 2.582597,2.049534 1.553235,0 2.729649,-0.735259 v 2.095488 q -1.305084,0.698497 -3.391382,0.698497 -2.279303,0 -3.538434,-1.259132 -1.259131,-1.268321 -1.259131,-3.529243 0,-2.343638 1.360229,-3.713058 1.360229,-1.36942 3.345429,-1.36942 2.058725,0 3.179995,1.222368 1.130461,1.222368 1.130461,3.317856 z m -2.692886,-1.783004 q 0,-2.021962 -1.635952,-2.021962 -0.698496,0 -1.213177,0.579016 -0.505491,0.579017 -0.61578,1.442946 z"
         style="font-style:normal;font-variant:normal;font-weight:bold;font-stretch:normal;font-size:18.82263184px;line-height:1.25;font-family:Gisha;-inkscape-font-specification:'Gisha, Bold';font-variant-ligatures:normal;font-variant-caps:normal;font-variant-numeric:normal;font-feature-settings:normal;text-align:start;letter-spacing:0px;word-spacing:0px;writing-mode:lr-tb;text-anchor:start;fill:#b90b47;fill-opacity:0.77519382;stroke:#000000;stroke-width:0.1;stroke-miterlimit:4;stroke-dasharray:none"
         id="path6043"
         inkscape:connector-curvature="0"
         transform="matrix(1.0385776,0,0,0.96285534,1.5119048,-1.7953869)" />
      <path
         d="m 50.953135,20.899931 h -6.139413 q 0.147052,2.049534 2.582597,2.049534 1.553235,0 2.72965,-0.735259 v 2.095488 q -1.305085,0.698497 -3.391383,0.698497 -2.279303,0 -3.538434,-1.259132 -1.259131,-1.268321 -1.259131,-3.529243 0,-2.343638 1.360229,-3.713058 1.360229,-1.36942 3.345429,-1.36942 2.058725,0 3.179995,1.222368 1.130461,1.222368 1.130461,3.317856 z m -2.692886,-1.783004 q 0,-2.021962 -1.635952,-2.021962 -0.698496,0 -1.213177,0.579016 -0.505491,0.579017 -0.61578,1.442946 z"
         style="font-style:normal;font-variant:normal;font-weight:bold;font-stretch:normal;font-size:18.82263184px;line-height:1.25;font-family:Gisha;-inkscape-font-specification:'Gisha, Bold';font-variant-ligatures:normal;font-variant-caps:normal;font-variant-numeric:normal;font-feature-settings:normal;text-align:start;letter-spacing:0px;word-spacing:0px;writing-mode:lr-tb;text-anchor:start;fill:#b90b47;fill-opacity:0.77519382;stroke:#000000;stroke-width:0.1;stroke-miterlimit:4;stroke-dasharray:none"
         id="path6047"
         inkscape:connector-curvature="0"
         transform="matrix(1.0385776,0,0,0.96285534,1.5119048,-1.7953869)" />
      <path
         d="m 58.370059,24.668133 q -0.643352,0.340058 -1.939246,0.340058 -3.069706,0 -3.069706,-3.189187 v -4.310456 h -1.525663 v -2.141442 h 1.525663 v -2.031153 l 2.895082,-0.827166 v 2.858319 h 2.11387 v 2.141442 h -2.11387 v 3.804966 q 0,1.470518 1.167224,1.470518 0.459537,0 0.946646,-0.266531 z"
         style="font-style:normal;font-variant:normal;font-weight:bold;font-stretch:normal;font-size:18.82263184px;line-height:1.25;font-family:Gisha;-inkscape-font-specification:'Gisha, Bold';font-variant-ligatures:normal;font-variant-caps:normal;font-variant-numeric:normal;font-feature-settings:normal;text-align:start;letter-spacing:0px;word-spacing:0px;writing-mode:lr-tb;text-anchor:start;fill:#b90b47;fill-opacity:0.77519382;stroke:#000000;stroke-width:0.1;stroke-miterlimit:4;stroke-dasharray:none"
         id="path6049"
         inkscape:connector-curvature="0"
         transform="matrix(1.0385776,0,0,0.96285534,1.5119048,-1.7953869)" />
      <path
         d="m 67.827331,24.778422 h -2.74803 v -1.351038 h -0.03676 q -0.946646,1.580807 -2.803176,1.580807 -1.36942,0 -2.159823,-0.772022 -0.781213,-0.781213 -0.781213,-2.077107 0,-2.73884 3.244331,-3.161614 l 2.555022,-0.340058 q 0,-1.544044 -1.672714,-1.544044 -1.681905,0 -3.198377,1.001791 v -2.187396 q 0.606588,-0.312485 1.654333,-0.551444 1.056935,-0.238959 1.920864,-0.238959 4.025543,0 4.025543,4.016352 z m -2.729649,-3.823347 v -0.634161 l -1.709477,0.220578 q -1.415374,0.183815 -1.415374,1.277512 0,0.4963 0.340057,0.817976 0.349248,0.312485 0.937456,0.312485 0.817975,0 1.332657,-0.560635 0.514681,-0.569826 0.514681,-1.433755 z"
         style="font-style:normal;font-variant:normal;font-weight:bold;font-stretch:normal;font-size:18.82263184px;line-height:1.25;font-family:Gisha;-inkscape-font-specification:'Gisha, Bold';font-variant-ligatures:normal;font-variant-caps:normal;font-variant-numeric:normal;font-feature-settings:normal;text-align:start;letter-spacing:0px;word-spacing:0px;writing-mode:lr-tb;text-anchor:start;fill:#b90b47;fill-opacity:0.77519382;stroke:#000000;stroke-width:0.1;stroke-miterlimit:4;stroke-dasharray:none"
         id="path6051"
         inkscape:connector-curvature="0"
         transform="matrix(1.0385776,0,0,0.96285534,1.5119048,-1.7953869)" />
      <path
         d="m 69.527615,24.530272 v -2.352829 q 0.716878,0.431965 1.424564,0.643352 0.716878,0.211387 1.351039,0.211387 0.772022,0 1.213177,-0.211387 0.450347,-0.211387 0.450347,-0.643352 0,-0.275722 -0.202197,-0.459537 -0.202196,-0.183814 -0.523872,-0.321676 -0.312485,-0.137861 -0.689305,-0.248149 -0.37682,-0.110289 -0.726068,-0.24815 -0.560636,-0.211387 -0.9926,-0.450347 -0.422774,-0.24815 -0.716878,-0.569825 -0.284913,-0.321676 -0.441155,-0.74445 -0.147052,-0.422774 -0.147052,-1.001791 0,-0.790403 0.340057,-1.360229 0.349248,-0.569826 0.919074,-0.928264 0.579017,-0.36763 1.314276,-0.533063 0.744449,-0.174624 1.544044,-0.174624 0.62497,0 1.268322,0.101098 0.643351,0.09191 1.268321,0.275722 v 2.24254 q -0.551444,-0.321676 -1.185605,-0.477918 -0.62497,-0.165434 -1.231559,-0.165434 -0.284913,0 -0.542253,0.05514 -0.24815,0.04595 -0.441156,0.147052 -0.193005,0.09191 -0.303294,0.24815 -0.110289,0.147051 -0.110289,0.340057 0,0.257341 0.165433,0.441155 0.165434,0.183815 0.431965,0.321676 0.266531,0.128671 0.588207,0.238959 0.330867,0.101099 0.652543,0.211387 0.579016,0.202197 1.047744,0.441156 0.468728,0.238959 0.799594,0.560635 0.340057,0.321676 0.514681,0.75364 0.183815,0.431965 0.183815,1.029363 0,0.836357 -0.367629,1.433755 -0.358439,0.588207 -0.965028,0.965028 -0.597398,0.367629 -1.387801,0.533063 -0.781213,0.174624 -1.626761,0.174624 -1.553235,0 -2.876701,-0.477919 z"
         style="font-style:normal;font-variant:normal;font-weight:bold;font-stretch:normal;font-size:18.82263184px;line-height:1.25;font-family:Gisha;-inkscape-font-specification:'Gisha, Bold';font-variant-ligatures:normal;font-variant-caps:normal;font-variant-numeric:normal;font-feature-settings:normal;text-align:start;letter-spacing:0px;word-spacing:0px;writing-mode:lr-tb;text-anchor:start;fill:#b90b47;fill-opacity:0.77519382;stroke:#000000;stroke-width:0.1;stroke-miterlimit:4;stroke-dasharray:none"
         id="path6053"
         inkscape:connector-curvature="0"
         transform="matrix(1.0385776,0,0,0.96285534,1.5119048,-1.7953869)" />
      <g
         transform="matrix(0.00613041,-0.47484246,0.49226561,0.00591343,-4.8472313,38.783926)"
         id="g6215">
        <path
           sodipodi:nodetypes="cccscccccccccc"
           inkscape:connector-curvature="0"
           id="path6209"
           d="m 30.508243,100.47264 c 0.07968,1.89624 2.114471,1.55977 2.080625,-0.0438 L 31.975632,87.868444 c -0.07801,-1.283155 0.942141,-1.30886 1.182668,-2.003966 0.294041,-0.849757 -0.06571,-6.271074 -0.317568,-8.223941 -0.298991,2.358595 -0.06757,7.457011 -0.438026,7.019369 -0.197112,-0.146009 -0.109977,-4.672279 -0.427075,-7.008418 -0.240286,2.339048 -0.144877,6.285647 -0.426752,6.999022 -0.321337,-0.595325 -0.276794,-5.110976 -0.4493,-7.086625 -0.230547,2.223222 -0.179621,6.510832 -0.50373,7.150774 -0.250652,-0.560082 -0.210576,-4.815192 -0.416126,-7.106973 -0.195966,2.076728 -0.561089,7.40558 -0.357934,8.004187 0.355134,1.334144 1.126911,0.48715 1.27779,2.179918 z"
           style="fill:#b80a47;fill-opacity:0.77647059;stroke:#000000;stroke-width:0.20312662;stroke-linecap:butt;stroke-linejoin:miter;stroke-miterlimit:4;stroke-dasharray:none;stroke-opacity:1" />
        <path
           sodipodi:nodetypes="ccccsc"
           inkscape:connector-curvature="0"
           id="path6211"
           d="m 60.228308,77.852357 c 0.116807,7.592451 0.267325,21.35447 0.350421,22.777353 -0.229558,1.31634 -2.045393,1.45441 -2.277734,0.0876 0.01946,-0.69459 0.379621,-5.95715 0.569431,-8.935727 -0.192384,-1.287748 -1.283299,-1.024969 -1.277789,-1.695473 0.0098,-1.191875 0.0096,-10.610082 2.635671,-12.233759 z"
           style="fill:#b80a47;fill-opacity:0.77647059;stroke:#000000;stroke-width:0.20312662;stroke-linecap:butt;stroke-linejoin:miter;stroke-miterlimit:4;stroke-dasharray:none;stroke-opacity:1" />
        <path
           inkscape:connector-curvature="0"
           id="path6213"
           d="m 45.163181,78.459243 a 11.064026,10.907266 0 0 0 -11.064482,10.907671 11.064026,10.907266 0 0 0 2.795682,7.232537 5.8923655,4.6894656 56.303366 0 1 2.037513,-2.43791 5.8923655,4.6894656 56.303366 0 1 0.03856,-0.01573 7.6702834,7.5616073 0 0 1 -1.399617,-4.339419 7.6702834,7.5616073 0 0 1 7.670489,-7.56138 7.6702834,7.5616073 0 0 1 7.66998,7.56138 7.6702834,7.5616073 0 0 1 -1.427528,4.384079 3.311795,3.9953306 35.999267 0 1 0.756646,1.566573 3.311795,3.9953306 35.999267 0 1 1.46508,0.529804 11.064026,10.907266 0 0 0 2.521645,-6.919931 11.064026,10.907266 0 0 0 -11.063974,-10.907671 z m -0.01472,4.196821 a 7.191371,7.1503558 0 0 0 -7.191433,7.150325 7.191371,7.1503558 0 0 0 1.374245,4.191744 5.8923655,4.6894656 56.303366 0 1 0.887066,-0.1969 3.6013294,5.7340117 2.4506489e-7 0 1 2.364328,-1.418901 3.6013294,5.7340117 2.4506489e-7 0 1 1.328062,0.409532 3.5674081,4.3511574 25.560874 0 1 3.179331,-0.688644 3.5674081,4.3511574 25.560874 0 1 1.644727,1.252448 3.311795,3.9953306 35.999267 0 1 2.345549,0.479566 7.191371,7.1503558 0 0 0 1.259554,-4.028845 7.191371,7.1503558 0 0 0 -7.191429,-7.150325 z"
           style="font-style:normal;font-variant:normal;font-weight:bold;font-stretch:normal;font-size:18.82263184px;line-height:1.25;font-family:Gisha;-inkscape-font-specification:'Gisha, Bold';font-variant-ligatures:normal;font-variant-caps:normal;font-variant-numeric:normal;font-feature-settings:normal;text-align:start;letter-spacing:0px;word-spacing:0px;writing-mode:lr-tb;text-anchor:start;opacity:0.95899999;fill:#b80a47;fill-opacity:0.77647059;stroke:#000000;stroke-width:0.20312662;stroke-miterlimit:4;stroke-dasharray:none;stroke-opacity:1" />
      </g>
    </g>
  </g>
</svg>
